<svg width="49" height="23" fill="none" xmlns="http://www.w3.org/2000/svg"><path d="M41.84 22H7a.792.792 0 01-.75-.534L1.044 6.299a.791.791 0 01.874-1.037.79.79 0 01.677.47c.644 1.46 2.934 6.173 5.606 6.173.033 0 .067-.001.1-.003 1.612-.071 4.133-1.929 6.989-10.365a.792.792 0 011.5 0c.975 2.877 4.243 10.321 7.636 10.321h.027c1.61-.02 4.083-1.823 6.732-10.303A.792.792 0 0131.941 1h.007c.35.004.656.235.753.57.81 2.784 3.681 10.076 7.203 10.38 2.058.17 4.34-2.155 6.593-6.748a.791.791 0 011.46.603l-5.368 15.66a.792.792 0 01-.75.535zM7.565 20.419h33.709l3.102-9.05c-1.5 1.584-3.022 2.29-4.61 2.157-3.9-.338-6.577-5.951-7.822-9.25-2.198 6.127-4.652 9.13-7.473 9.162l-.046.001c-3.942 0-6.985-6.034-8.364-9.363-2.352 6.198-4.877 9.28-7.69 9.406-1.442.055-2.698-.662-3.78-1.727l2.974 8.664z" fill="#A07B50" stroke="#151313" stroke-width=".8"/></svg>