<svg width="21" height="15" fill="none" xmlns="http://www.w3.org/2000/svg"><path d="M18.727 6.697c1.127-.093 1.891-.605 2.186-1.3-.407.25-1.67.521-2.366.262a8.722 8.722 0 00-.11-.46c-.531-1.95-2.35-3.52-4.255-3.331.154-.062.31-.12.467-.172.21-.075 1.44-.276 1.246-.71-.163-.382-1.667.289-1.95.376.374-.14.992-.382 1.058-.811a2.985 2.985 0 00-1.569.743c.157-.17.276-.375.302-.596-1.527.975-2.42 2.942-3.141 4.85-.567-.55-1.07-.982-1.52-1.223C7.811 3.647 6.299 2.94 3.926 2.06c-.073.785.389 1.83 1.717 2.523-.288-.038-.814.048-1.235.149.171.899.731 1.64 2.247 1.998-.693.046-1.05.204-1.375.544.315.625 1.085 1.361 2.47 1.21-1.54.664-.627 1.893.626 1.71-2.138 2.208-5.508 2.045-7.443.199 5.052 6.885 16.036 4.072 17.673-2.56 1.226.01 1.947-.425 2.394-.905-.706.12-1.73-.004-2.273-.23z" fill="#A07B50"/></svg>