<svg width="22" height="13" fill="none" xmlns="http://www.w3.org/2000/svg"><path d="M21.328 11.085c-.056-.095-.406-.854-2.088-2.416-1.762-1.635-1.525-1.37.596-4.197 1.293-1.723 1.81-2.774 1.647-3.224C21.33.82 20.38.933 20.38.933L17.22.95s-.234-.031-.409.072c-.17.103-.278.34-.278.34s-.501 1.333-1.17 2.466c-1.407 2.39-1.971 2.517-2.201 2.369-.535-.346-.401-1.391-.401-2.133 0-2.317.351-3.283-.685-3.533-.344-.083-.597-.138-1.476-.147C9.47.373 8.515.389 7.975.653c-.36.176-.638.569-.468.591.21.028.682.128.933.47.325.44.313 1.431.313 1.431s.187 2.728-.435 3.067c-.427.233-1.012-.242-2.267-2.412-.643-1.111-1.13-2.34-1.13-2.34s-.093-.229-.26-.351a1.31 1.31 0 00-.486-.196L1.17.931s-.451.014-.617.21c-.147.174-.012.534-.012.534s2.353 5.505 5.017 8.28C8 12.498 10.775 12.33 10.775 12.33h1.257s.38-.042.573-.25c.179-.193.172-.553.172-.553s-.025-1.686.759-1.935c.771-.244 1.762 1.63 2.813 2.352.794.545 1.397.426 1.397.426l2.81-.04s1.469-.09.772-1.246z" fill="#A07B50"/></svg>